{
	"asset":{
		"generator":"Khronos glTF Blender I/O v4.2.60",
		"version":"2.0"
	},
	"extensionsUsed":[
		"KHR_materials_clearcoat",
		"KHR_materials_specular",
		"KHR_materials_sheen",
		"KHR_materials_ior"
	],
	"scene":0,
	"scenes":[
		{
			"name":"Scene",
			"nodes":[
				0
			]
		}
	],
	"nodes":[
		{
			"mesh":0,
			"name":"Text",
			"rotation":[
				0.6426587104797363,
				0.18017929792404175,
				-0.15546366572380066,
				0.7282556891441345
			],
			"scale":[
				1.2118068933486938,
				1.211807131767273,
				1.2118068933486938
			],
			"translation":[
				-1.6001516580581665,
				1.6186795234680176,
				0.6727631092071533
			]
		}
	],
	"materials":[
		{
			"doubleSided":true,
			"extensions":{
				"KHR_materials_clearcoat":{
					"clearcoatRoughnessFactor":0
				},
				"KHR_materials_specular":{
					"specularColorFactor":[
						1.9683809280395508,
						0.693653404712677,
						2.0
					]
				},
				"KHR_materials_sheen":{
					"sheenColorFactor":[
						0.4655938744544983,
						0.08131611347198486,
						1.0
					],
					"sheenRoughnessFactor":0.5866141319274902
				},
				"KHR_materials_ior":{
					"ior":9.499999046325684
				}
			},
			"name":"Material.001",
			"pbrMetallicRoughness":{
				"baseColorFactor":[
					0.3064103126525879,
					0.29519253969192505,
					0.8011330962181091,
					1
				],
				"metallicFactor":0.8818897604942322,
				"roughnessFactor":0.33464565873146057
			}
		}
	],
	"meshes":[
		{
			"name":"Text",
			"primitives":[
				{
					"attributes":{
						"POSITION":0,
						"NORMAL":1,
						"TEXCOORD_0":2
					},
					"indices":3,
					"material":0
				}
			]
		}
	],
	"accessors":[
		{
			"bufferView":0,
			"componentType":5126,
			"count":35018,
			"max":[
				2.801541805267334,
				0.2900000214576721,
				0.03207250311970711
			],
			"min":[
				0.011929810047149658,
				-0.2900000214576721,
				-0.6083963513374329
			],
			"type":"VEC3"
		},
		{
			"bufferView":1,
			"componentType":5126,
			"count":35018,
			"type":"VEC3"
		},
		{
			"bufferView":2,
			"componentType":5126,
			"count":35018,
			"type":"VEC2"
		},
		{
			"bufferView":3,
			"componentType":5123,
			"count":179280,
			"type":"SCALAR"
		}
	],
	"bufferViews":[
		{
			"buffer":0,
			"byteLength":420216,
			"byteOffset":0,
			"target":34962
		},
		{
			"buffer":0,
			"byteLength":420216,
			"byteOffset":420216,
			"target":34962
		},
		{
			"buffer":0,
			"byteLength":280144,
			"byteOffset":840432,
			"target":34962
		},
		{
			"buffer":0,
			"byteLength":358560,
			"byteOffset":1120576,
			"target":34963
		}
	],
	"buffers":[
		{
			"byteLength":1479136,
			"uri":"conflux-group-logo.bin"
		}
	]
}
